<svg width="48" height="48" viewBox="0 0 48 48" fill="none" xmlns="http://www.w3.org/2000/svg">
<mask id="mask0_155_38" style="mask-type:alpha" maskUnits="userSpaceOnUse" x="2" y="2" width="44" height="44">
<path fill-rule="evenodd" clip-rule="evenodd" d="M24 24V19L39 4L44 9L29 24H24Z" fill="white" stroke="white" stroke-width="4" stroke-linecap="round" stroke-linejoin="round"/>
<path d="M16 24H9C7.67392 24 6.40215 24.5268 5.46447 25.4645C4.52678 26.4021 4 27.6739 4 29C4 30.3261 4.52678 31.5979 5.46447 32.5355C6.40215 33.4732 7.67392 34 9 34H39C40.3261 34 41.5979 34.5268 42.5355 35.4645C43.4732 36.4021 44 37.6739 44 39C44 40.3261 43.4732 41.5979 42.5355 42.5355C41.5979 43.4732 40.3261 44 39 44H18" stroke="white" stroke-width="4" stroke-linecap="round" stroke-linejoin="round"/>
</mask>
<g mask="url(#mask0_155_38)">
<path d="M0 0H48V48H0V0Z" fill="#CECCC3"/>
</g>
</svg>
