<svg width="20" height="21" viewBox="0 0 20 21" fill="none" xmlns="http://www.w3.org/2000/svg">
<path d="M15.7895 14.0589C16.627 14.0589 17.4302 14.4019 18.0224 15.0125C18.6147 15.623 18.9474 16.4511 18.9474 17.3145C18.9474 18.1779 18.6147 19.006 18.0224 19.6165C17.4302 20.2271 16.627 20.5701 15.7895 20.5701C15.1358 20.572 14.4977 20.3641 13.9639 19.9751C13.4301 19.5862 13.027 19.0356 12.8105 18.3997H11.579V16.2293H12.8105C13.2421 14.9596 14.4105 14.0589 15.7895 14.0589ZM15.7895 16.2293C15.5103 16.2293 15.2426 16.3436 15.0452 16.5472C14.8477 16.7507 14.7368 17.0267 14.7368 17.3145C14.7368 17.6023 14.8477 17.8783 15.0452 18.0818C15.2426 18.2854 15.5103 18.3997 15.7895 18.3997C16.0686 18.3997 16.3364 18.2854 16.5338 18.0818C16.7312 17.8783 16.8421 17.6023 16.8421 17.3145C16.8421 17.0267 16.7312 16.7507 16.5338 16.5472C16.3364 16.3436 16.0686 16.2293 15.7895 16.2293ZM15.7895 6.46263C16.1887 6.46263 16.5716 6.29914 16.8539 6.00811C17.1361 5.71709 17.2947 5.32238 17.2947 4.91081C17.2947 4.49925 17.1361 4.10454 16.8539 3.81351C16.5716 3.52249 16.1887 3.359 15.7895 3.359C15.3903 3.359 15.0074 3.52249 14.7251 3.81351C14.4428 4.10454 14.2842 4.49925 14.2842 4.91081C14.2842 5.32238 14.4428 5.71709 14.7251 6.00811C15.0074 6.29914 15.3903 6.46263 15.7895 6.46263ZM15.7895 0.570068C16.9062 0.570068 17.9771 1.0274 18.7668 1.84144C19.5564 2.65549 20 3.75958 20 4.91081C20 8.15552 15.7895 12.9738 15.7895 12.9738C15.7895 12.9738 11.579 8.15552 11.579 4.91081C11.579 3.75958 12.0226 2.65549 12.8122 1.84144C13.6018 1.0274 14.6728 0.570068 15.7895 0.570068ZM6.13685 16.2293H7.36843V18.3997H6.13685C5.92042 19.0356 5.5173 19.5862 4.98347 19.9751C4.44964 20.3641 3.81159 20.572 3.15791 20.5701C2.32038 20.5701 1.51716 20.2271 0.924939 19.6165C0.332719 19.006 1.3173e-05 18.1779 1.3173e-05 17.3145C1.3173e-05 15.8929 0.873697 14.6883 2.10527 14.2434V12.9738H4.21054V14.2434C5.10527 14.569 5.82106 15.3069 6.13685 16.2293ZM3.15791 16.2293C2.87873 16.2293 2.61099 16.3436 2.41358 16.5472C2.21618 16.7507 2.10527 17.0267 2.10527 17.3145C2.10527 17.6023 2.21618 17.8783 2.41358 18.0818C2.61099 18.2854 2.87873 18.3997 3.15791 18.3997C3.43708 18.3997 3.70482 18.2854 3.90223 18.0818C4.09963 17.8783 4.21054 17.6023 4.21054 17.3145C4.21054 17.0267 4.09963 16.7507 3.90223 16.5472C3.70482 16.3436 3.43708 16.2293 3.15791 16.2293ZM3.15791 1.0367C3.99543 1.0367 4.79865 1.37969 5.39087 1.99023C5.98309 2.60077 6.3158 3.42883 6.3158 4.29226C6.3158 5.71385 5.44211 6.91841 4.21054 7.36334V8.633H2.10527V7.36334C1.48846 7.14021 0.954341 6.72462 0.577076 6.17428C0.199811 5.62394 -0.00187757 4.96616 1.3173e-05 4.29226C1.3173e-05 3.42883 0.332719 2.60077 0.924939 1.99023C1.51716 1.37969 2.32038 1.0367 3.15791 1.0367M3.15791 3.20707C2.87873 3.20707 2.61099 3.3214 2.41358 3.52492C2.21618 3.72843 2.10527 4.00445 2.10527 4.29226C2.10527 4.58007 2.21618 4.85609 2.41358 5.0596C2.61099 5.26311 2.87873 5.37744 3.15791 5.37744C3.43708 5.37744 3.70482 5.26311 3.90223 5.0596C4.09963 4.85609 4.21054 4.58007 4.21054 4.29226C4.21054 4.00445 4.09963 3.72843 3.90223 3.52492C3.70482 3.3214 3.43708 3.20707 3.15791 3.20707ZM8.42106 18.3997V16.2293H10.5263V18.3997H8.42106ZM4.21054 11.8886H2.10527V9.71819H4.21054V11.8886Z" fill="#CECCC3"/>
</svg>
