<svg width="20" height="20" viewBox="0 0 20 20" fill="none" xmlns="http://www.w3.org/2000/svg">
<path d="M14.95 8.22989L9.29 13.8899C9.19749 13.9826 9.0876 14.0561 8.96662 14.1063C8.84565 14.1565 8.71597 14.1823 8.585 14.1823C8.45403 14.1823 8.32435 14.1565 8.20338 14.1063C8.0824 14.0561 7.97251 13.9826 7.88 13.8899L5.05 11.0599C4.95742 10.9673 4.88398 10.8574 4.83387 10.7364C4.78377 10.6155 4.75798 10.4858 4.75798 10.3549C4.75798 10.224 4.78377 10.0943 4.83387 9.97334C4.88398 9.85238 4.95742 9.74247 5.05 9.64989C5.14258 9.55731 5.25249 9.48387 5.37346 9.43376C5.49442 9.38366 5.62407 9.35787 5.755 9.35787C5.88593 9.35787 6.01558 9.38366 6.13654 9.43376C6.25751 9.48387 6.36742 9.55731 6.46 9.64989L8.58 11.7699L13.53 6.81989C13.6225 6.72719 13.7324 6.65364 13.8534 6.60346C13.9743 6.55327 14.104 6.52745 14.235 6.52745C14.366 6.52745 14.4957 6.55327 14.6166 6.60346C14.7376 6.65364 14.8475 6.72719 14.94 6.81989C15.34 7.20989 15.34 7.83989 14.95 8.22989ZM2 9.99989C2 7.66989 3.02 5.57989 4.62 4.11989L6.15 5.64989C6.2205 5.71899 6.30987 5.76568 6.40686 5.78407C6.50384 5.80246 6.60411 5.79173 6.69501 5.75323C6.7859 5.71474 6.86337 5.65019 6.91765 5.56774C6.97193 5.48528 7.00058 5.3886 7 5.28989V0.999889C7 0.719889 6.78 0.499889 6.5 0.499889H2.21C1.76 0.499889 1.54 1.03989 1.86 1.34989L3.2 2.69989C1.24 4.51989 0 7.10989 0 9.99989C0 14.7499 3.32 18.7299 7.76 19.7499C8.39 19.8899 9 19.4199 9 18.7699C9 18.2999 8.67 17.8999 8.21 17.7899C4.66 16.9799 2 13.7999 2 9.99989ZM20 9.99989C20 5.24989 16.68 1.26989 12.24 0.249889C11.61 0.109889 11 0.579889 11 1.22989C11 1.69989 11.33 2.09989 11.79 2.20989C15.34 3.01989 18 6.19989 18 9.99989C18 12.3299 16.98 14.4199 15.38 15.8799L13.85 14.3499C13.7795 14.2808 13.6901 14.2341 13.5931 14.2157C13.4962 14.1973 13.3959 14.208 13.305 14.2465C13.2141 14.285 13.1366 14.3496 13.0823 14.432C13.0281 14.5145 12.9994 14.6112 13 14.7099V18.9999C13 19.2799 13.22 19.4999 13.5 19.4999H17.79C18.24 19.4999 18.46 18.9599 18.14 18.6499L16.8 17.2999C18.76 15.4799 20 12.8899 20 9.99989Z" fill="#CECCC3"/>
</svg>
