<svg width="78" height="913" viewBox="0 0 78 913" fill="none" xmlns="http://www.w3.org/2000/svg">
<rect width="78" height="913" fill="white"/>
<line x1="40" x2="40" y2="900" stroke="#CECCC3" stroke-width="2"/>
<circle class="step step-1" cx="40" cy="10" r="10" fill="#CECCC3"/>
<path d="M41.5767 3.36364V15H40.1676V4.84091H40.0994L37.2585 6.72727V5.29545L40.1676 3.36364H41.5767Z" fill="#0B3618"/>
<circle class="step step-2" cx="40" cy="235" r="10" fill="#CECCC3"/>
<path d="M36.4784 240V238.977L40.3194 234.773C40.7701 234.28 41.1413 233.852 41.433 233.489C41.7247 233.121 41.9406 232.777 42.0807 232.455C42.2247 232.129 42.2966 231.788 42.2966 231.432C42.2966 231.023 42.1981 230.669 42.0012 230.369C41.808 230.07 41.5428 229.839 41.2057 229.676C40.8686 229.513 40.4898 229.432 40.0694 229.432C39.6224 229.432 39.2322 229.525 38.8989 229.71C38.5694 229.892 38.3137 230.148 38.1319 230.477C37.9538 230.807 37.8648 231.193 37.8648 231.636H36.5239C36.5239 230.955 36.6811 230.356 36.9955 229.841C37.3099 229.326 37.7379 228.924 38.2796 228.636C38.825 228.348 39.4368 228.205 40.1148 228.205C40.7966 228.205 41.4008 228.348 41.9273 228.636C42.4538 228.924 42.8667 229.312 43.1659 229.801C43.4652 230.29 43.6148 230.833 43.6148 231.432C43.6148 231.86 43.5372 232.278 43.3819 232.688C43.2303 233.093 42.9652 233.545 42.5864 234.045C42.2114 234.542 41.6906 235.148 41.0239 235.864L38.4103 238.659V238.75H43.8194V240H36.4784Z" fill="#0B3618"/>
<circle class="step step-3" cx="40" cy="458" r="10" fill="#CECCC3"/>
<path d="M40.5426 464.159C39.7926 464.159 39.1241 464.03 38.5369 463.773C37.9536 463.515 37.4896 463.157 37.1449 462.699C36.804 462.237 36.6184 461.701 36.5881 461.091H38.0199C38.0502 461.466 38.179 461.79 38.4062 462.062C38.6335 462.331 38.9309 462.54 39.2983 462.688C39.6657 462.835 40.0729 462.909 40.5199 462.909C41.0199 462.909 41.4631 462.822 41.8494 462.648C42.2358 462.473 42.5388 462.231 42.7585 461.92C42.9782 461.61 43.0881 461.25 43.0881 460.841C43.0881 460.413 42.982 460.036 42.7699 459.71C42.5578 459.381 42.2472 459.123 41.8381 458.938C41.429 458.752 40.929 458.659 40.3381 458.659H39.4062V457.409H40.3381C40.8002 457.409 41.2055 457.326 41.554 457.159C41.9063 456.992 42.1809 456.758 42.3778 456.455C42.5786 456.152 42.679 455.795 42.679 455.386C42.679 454.992 42.5919 454.65 42.4176 454.358C42.2434 454.066 41.9972 453.839 41.679 453.676C41.3646 453.513 40.9934 453.432 40.5653 453.432C40.1638 453.432 39.785 453.506 39.429 453.653C39.0767 453.797 38.7888 454.008 38.5653 454.284C38.3419 454.557 38.2206 454.886 38.2017 455.273H36.8381C36.8608 454.663 37.0445 454.129 37.3892 453.67C37.7339 453.208 38.1847 452.848 38.7415 452.591C39.3021 452.333 39.9176 452.205 40.5881 452.205C41.3078 452.205 41.9252 452.35 42.4403 452.642C42.9555 452.93 43.3513 453.311 43.6278 453.784C43.9044 454.258 44.0426 454.769 44.0426 455.318C44.0426 455.973 43.8703 456.532 43.5256 456.994C43.1847 457.456 42.7206 457.777 42.1335 457.955V458.045C42.8684 458.167 43.4422 458.479 43.8551 458.983C44.268 459.483 44.4744 460.102 44.4744 460.841C44.4744 461.473 44.3021 462.042 43.9574 462.545C43.6165 463.045 43.1506 463.439 42.5597 463.727C41.9688 464.015 41.2964 464.159 40.5426 464.159Z" fill="#0B3618"/>
<circle class="step step-4" cx="40" cy="678" r="10" fill="#CECCC3"/>
<path d="M34.799 680.614V679.455L39.9126 671.364H40.7536V673.159H40.1854L36.3217 679.273V679.364H43.2081V680.614H34.799ZM40.2763 683V680.261V679.722V671.364H41.6172V683H40.2763Z" fill="#0B3618"/>
<circle class="step step-5" cx="39" cy="903" r="10" fill="#CECCC3"/>
<path d="M38.9737 908.159C38.3071 908.159 37.7067 908.027 37.1726 907.761C36.6385 907.496 36.2105 907.133 35.8885 906.67C35.5665 906.208 35.3904 905.682 35.3601 905.091H36.7237C36.7768 905.617 37.0154 906.053 37.4396 906.398C37.8677 906.739 38.379 906.909 38.9737 906.909C39.451 906.909 39.8752 906.797 40.2464 906.574C40.6214 906.35 40.915 906.044 41.1271 905.653C41.343 905.259 41.451 904.814 41.451 904.318C41.451 903.811 41.3393 903.358 41.1158 902.96C40.8961 902.559 40.593 902.242 40.2067 902.011C39.8203 901.78 39.379 901.663 38.8828 901.659C38.5268 901.655 38.1612 901.71 37.7862 901.824C37.4112 901.934 37.1025 902.076 36.8601 902.25L35.5419 902.091L36.2464 896.364H42.2919V897.614H37.4283L37.0192 901.045H37.0874C37.326 900.856 37.6252 900.699 37.9851 900.574C38.3449 900.449 38.7199 900.386 39.1101 900.386C39.8222 900.386 40.4567 900.557 41.0135 900.898C41.5741 901.235 42.0135 901.697 42.3317 902.284C42.6536 902.871 42.8146 903.542 42.8146 904.295C42.8146 905.038 42.648 905.701 42.3146 906.284C41.9851 906.864 41.5305 907.322 40.951 907.659C40.3714 907.992 39.7124 908.159 38.9737 908.159Z" fill="#0B3618"/>
</svg>
