<svg width="24" height="24" viewBox="0 0 24 24" fill="none" xmlns="http://www.w3.org/2000/svg">
<g clip-path="url(#clip0_122_15)">
<path d="M11.944 -2.83684e-05C8.77112 0.0147786 5.73324 1.28559 3.4949 3.53443C1.25656 5.78326 -3.4549e-05 8.82705 7.12435e-10 12C7.12441e-10 15.1826 1.26428 18.2348 3.51472 20.4853C5.76516 22.7357 8.8174 24 12 24C15.1826 24 18.2348 22.7357 20.4853 20.4853C22.7357 18.2348 24 15.1826 24 12C24 8.81737 22.7357 5.76513 20.4853 3.51469C18.2348 1.26425 15.1826 -2.83684e-05 12 -2.83684e-05C11.9813 -7.19241e-05 11.9627 -7.19241e-05 11.944 -2.83684e-05V-2.83684e-05ZM16.906 7.22397C17.006 7.22197 17.227 7.24697 17.371 7.36397C17.4667 7.44707 17.5277 7.56305 17.542 7.68897C17.558 7.78197 17.578 7.99497 17.562 8.16097C17.382 10.059 16.6 14.663 16.202 16.788C16.034 17.688 15.703 17.989 15.382 18.018C14.686 18.083 14.157 17.558 13.482 17.116C12.426 16.423 11.829 15.992 10.804 15.316C9.619 14.536 10.387 14.106 11.062 13.406C11.239 13.222 14.309 10.429 14.369 10.176C14.376 10.144 14.383 10.026 14.313 9.96397C14.243 9.90197 14.139 9.92297 14.064 9.93997C13.958 9.96397 12.271 11.08 9.003 13.285C8.523 13.615 8.09 13.775 7.701 13.765C7.273 13.757 6.449 13.524 5.836 13.325C5.084 13.08 4.487 12.951 4.539 12.536C4.566 12.32 4.864 12.099 5.432 11.873C8.93 10.349 11.262 9.34397 12.43 8.85897C15.762 7.47297 16.455 7.23197 16.906 7.22397V7.22397Z" fill="white"/>
</g>
<defs>
<clipPath id="clip0_122_15">
<rect width="24" height="24" fill="white"/>
</clipPath>
</defs>
</svg>
