<svg width="245" height="102" viewBox="0 0 245 102" fill="none" xmlns="http://www.w3.org/2000/svg">
<g filter="url(#filter0_b_104_21)">
<path d="M44.9142 12.0013C42.7885 11.9637 40.907 12.828 39.7005 14.1808L39.6718 14.2184C39.6583 14.2357 39.6439 14.2524 39.6287 14.2685C39.6133 14.2845 39.5989 14.3013 39.5856 14.3186L33.6825 21.252C31.452 21.8618 29.4527 22.9873 27.8971 24.5089C27.5158 24.5213 27.1358 24.5557 26.7596 24.6116V24.4775C26.7596 23.0996 25.8835 21.8721 24.4759 21.2583L23.4992 20.7823C23.4144 20.7461 23.3222 20.7248 23.2279 20.7197C23.1336 20.7146 23.039 20.7257 22.9497 20.7525C22.8603 20.7792 22.7779 20.8211 22.7071 20.8756C22.6362 20.9302 22.5784 20.9963 22.5369 21.0704C22.4954 21.1444 22.4711 21.2248 22.4652 21.3071C22.4594 21.3893 22.4721 21.4717 22.5028 21.5497C22.5335 21.6276 22.5815 21.6995 22.644 21.7613C22.7065 21.823 22.7824 21.8734 22.8673 21.9096L23.8296 22.3856C24.7488 22.7865 25.3233 23.5882 25.3233 24.4775V24.9448C23.6641 25.4765 22.2325 26.4404 21.2228 27.7058C20.2131 28.9712 19.674 30.4768 19.6787 32.0184C19.6787 36.0682 23.3369 39.3902 27.923 39.5293C29.3829 40.9478 31.2309 42.0209 33.2947 42.6483V42.8788C33.2947 43.5177 33.0074 44.1315 32.4904 44.5824L31.5568 45.3966C31.1403 45.7599 31.1403 46.3612 31.5568 46.7244C31.7722 46.9123 32.0451 47 32.318 47C32.5909 47 32.8638 46.9123 33.0792 46.7244L34.0128 45.9102C34.8629 45.1642 35.3711 44.173 35.4419 43.1231C36.0154 43.2049 36.5946 43.253 37.1755 43.2671H42.665C42.7655 44.2617 43.2538 45.1887 44.0811 45.9102L45.0147 46.7244C45.2302 46.9123 45.503 47 45.7759 47C46.0488 47 46.3217 46.9123 46.5372 46.7244C46.9537 46.3612 46.9537 45.7599 46.5372 45.3966L45.6036 44.5824C45.1954 44.2253 44.9265 43.7651 44.8352 43.2671H45.6898C46.6479 43.2673 47.6023 43.1629 48.5307 42.9565C48.7089 43.4119 49.0459 43.8073 49.4946 44.0873C49.9432 44.3674 50.481 44.5182 51.0327 44.5185H53.1441C53.7329 44.5185 54.2213 44.0801 54.2213 43.5665C54.2213 43.0529 53.7329 42.627 53.1441 42.627H51.0327C50.9267 42.6278 50.8233 42.5982 50.7385 42.5427C50.6536 42.4873 50.592 42.4091 50.5631 42.3201C52.5471 41.5098 54.224 40.2215 55.3961 38.6073L60.4174 32.5771L61.6756 32.3429C62.0921 32.2552 62.0921 31.7416 61.6756 31.6664L60.4174 31.4322L55.3961 25.402C54.0394 23.5339 52.0125 22.1096 49.6309 21.351C50.7119 20.2881 51.29 18.9069 51.2482 17.4866C51.162 14.4928 48.3469 12.0501 44.9142 12V12.0013ZM46.8503 40.693C46.4657 40.7386 46.0779 40.7617 45.6898 40.7619H42.0933V23.25H45.6898C46.0804 23.25 46.4682 23.2725 46.8503 23.3176V40.6942V40.693ZM54.0317 35.9855V28.0263L57.3437 32.0059L54.0317 35.9855ZM29.8404 37.634C30.116 37.3298 30.2653 36.9532 30.2641 36.5655V27.4588C30.2641 27.0517 30.1018 26.6784 29.8318 26.3866C31.1523 25.0096 32.9255 24.0193 34.9119 23.5493V40.4625C32.9299 39.9935 31.16 39.0064 29.8404 37.634ZM26.0558 33.2448C25.6749 33.2448 25.3096 33.1128 25.0402 32.8779C24.7709 32.643 24.6195 32.3243 24.6195 31.9921C24.6195 31.6599 24.7709 31.3413 25.0402 31.1064C25.3096 30.8715 25.6749 30.7395 26.0558 30.7395C26.4367 30.7395 26.8021 30.8715 27.0714 31.1064C27.3408 31.3413 27.4921 31.6599 27.4921 31.9921C27.4921 32.3243 27.3408 32.643 27.0714 32.8779C26.8021 33.1128 26.4367 33.2448 26.0558 33.2448Z" fill="#45371C"/>
<g filter="url(#filter1_i_104_21)">
<path d="M87.9511 51H85.6307V35.9648L80.7792 46.1953H79.3964L74.58 35.9648V51H72.412V33.5508H75.5761L80.2284 43.2656L84.7284 33.5508H87.9511V51ZM111.796 51H109.324L107.613 46.1367H100.066L98.355 51H95.9995L102.351 33.5508H105.445L111.796 51ZM106.898 44.1445L103.839 35.5781L100.769 44.1445H106.898ZM134.587 42.293C134.587 43.8789 134.239 45.3164 133.544 46.6055C132.857 47.8945 131.939 48.8945 130.79 49.6055C129.993 50.0977 129.103 50.4531 128.118 50.6719C127.142 50.8906 125.853 51 124.251 51H119.845V33.5508H124.204C125.907 33.5508 127.259 33.6758 128.259 33.9258C129.267 34.168 130.118 34.5039 130.814 34.9336C132.001 35.6758 132.927 36.6641 133.591 37.8984C134.255 39.1328 134.587 40.5977 134.587 42.293ZM132.161 42.2578C132.161 40.8906 131.923 39.7383 131.446 38.8008C130.97 37.8633 130.259 37.125 129.314 36.5859C128.626 36.1953 127.896 35.9258 127.122 35.7773C126.349 35.6211 125.423 35.543 124.345 35.543H122.165V49.0078H124.345C125.462 49.0078 126.435 48.9258 127.263 48.7617C128.099 48.5977 128.864 48.293 129.56 47.8477C130.427 47.293 131.075 46.5625 131.505 45.6562C131.942 44.75 132.161 43.6172 132.161 42.2578ZM155.233 51H143.737V33.5508H155.233V35.6133H146.057V40.3945H155.233V42.457H146.057V48.9375H155.233V51ZM191.322 45.6328C191.322 46.5 191.158 47.2656 190.83 47.9297C190.502 48.5938 190.06 49.1406 189.506 49.5703C188.849 50.0859 188.127 50.4531 187.338 50.6719C186.557 50.8906 185.56 51 184.349 51H178.162V33.5508H183.33C184.603 33.5508 185.557 33.5977 186.189 33.6914C186.822 33.7852 187.428 33.9805 188.006 34.2773C188.646 34.6133 189.111 35.0469 189.4 35.5781C189.689 36.1016 189.834 36.7305 189.834 37.4648C189.834 38.293 189.623 39 189.201 39.5859C188.779 40.1641 188.217 40.6289 187.514 40.9805V41.0742C188.693 41.3164 189.623 41.8359 190.303 42.6328C190.982 43.4219 191.322 44.4219 191.322 45.6328ZM187.42 37.7695C187.42 37.3477 187.349 36.9922 187.209 36.7031C187.068 36.4141 186.842 36.1797 186.529 36C186.162 35.7891 185.717 35.6602 185.193 35.6133C184.67 35.5586 184.021 35.5312 183.248 35.5312H180.482V40.5703H183.482C184.209 40.5703 184.787 40.5352 185.217 40.4648C185.646 40.3867 186.045 40.2305 186.412 39.9961C186.779 39.7617 187.037 39.4609 187.185 39.0938C187.342 38.7188 187.42 38.2773 187.42 37.7695ZM188.908 45.7266C188.908 45.0234 188.803 44.4648 188.592 44.0508C188.381 43.6367 187.998 43.2852 187.443 42.9961C187.068 42.8008 186.611 42.6758 186.072 42.6211C185.541 42.5586 184.892 42.5273 184.127 42.5273H180.482V49.0195H183.553C184.568 49.0195 185.4 48.9688 186.049 48.8672C186.697 48.7578 187.228 48.5625 187.642 48.2812C188.08 47.9766 188.4 47.6289 188.603 47.2383C188.807 46.8477 188.908 46.3438 188.908 45.7266ZM212.367 33.5508L206.226 43.3477V51H203.906V43.5938L197.742 33.5508H200.308L205.078 41.3555L209.894 33.5508H212.367ZM82.8196 67.8242C82.8196 68.5977 82.6829 69.3164 82.4095 69.9805C82.1439 70.6367 81.7689 71.207 81.2845 71.6914C80.6829 72.293 79.972 72.7461 79.1517 73.0508C78.3314 73.3477 77.2962 73.4961 76.0462 73.4961H73.7259V80H71.4056V62.5508H76.14C77.1868 62.5508 78.0736 62.6406 78.8001 62.8203C79.5267 62.9922 80.1712 63.2656 80.7337 63.6406C81.3978 64.0859 81.9095 64.6406 82.2689 65.3047C82.6361 65.9688 82.8196 66.8086 82.8196 67.8242ZM80.4056 67.8828C80.4056 67.2812 80.3001 66.7578 80.0892 66.3125C79.8782 65.8672 79.5579 65.5039 79.1282 65.2227C78.7532 64.9805 78.3236 64.8086 77.8392 64.707C77.3626 64.5977 76.7571 64.543 76.0228 64.543H73.7259V71.5156H75.6829C76.6204 71.5156 77.3821 71.4336 77.9681 71.2695C78.554 71.0977 79.0306 70.8281 79.3978 70.4609C79.765 70.0859 80.0228 69.6914 80.1712 69.2773C80.3275 68.8633 80.4056 68.3984 80.4056 67.8828ZM100.938 64.5547C101.649 65.3359 102.192 66.293 102.567 67.4258C102.949 68.5586 103.141 69.8438 103.141 71.2812C103.141 72.7188 102.946 74.0078 102.555 75.1484C102.172 76.2812 101.633 77.2266 100.938 77.9844C100.219 78.7734 99.3675 79.3672 98.3831 79.7656C97.4065 80.1641 96.2893 80.3633 95.0315 80.3633C93.805 80.3633 92.6878 80.1602 91.68 79.7539C90.68 79.3477 89.8284 78.7578 89.1253 77.9844C88.4221 77.2109 87.8792 76.2617 87.4964 75.1367C87.1214 74.0117 86.9339 72.7266 86.9339 71.2812C86.9339 69.8594 87.1214 68.5859 87.4964 67.4609C87.8714 66.3281 88.4182 65.3594 89.137 64.5547C89.8245 63.7891 90.6761 63.2031 91.6917 62.7969C92.7151 62.3906 93.8284 62.1875 95.0315 62.1875C96.2815 62.1875 97.4026 62.3945 98.3948 62.8086C99.3948 63.2148 100.242 63.7969 100.938 64.5547ZM100.727 71.2812C100.727 69.0156 100.219 67.2695 99.2034 66.043C98.1878 64.8086 96.8011 64.1914 95.0432 64.1914C93.2698 64.1914 91.8753 64.8086 90.8596 66.043C89.8518 67.2695 89.3479 69.0156 89.3479 71.2812C89.3479 73.5703 89.8636 75.3242 90.8948 76.543C91.9261 77.7539 93.3089 78.3594 95.0432 78.3594C96.7776 78.3594 98.1565 77.7539 99.18 76.543C100.211 75.3242 100.727 73.5703 100.727 71.2812ZM119.9 80H108.861V62.5508H111.181V77.9375H119.9V80ZM137.737 78.7344C137.307 78.9219 136.916 79.0977 136.565 79.2617C136.221 79.4258 135.768 79.5977 135.205 79.7773C134.729 79.9258 134.209 80.0508 133.647 80.1523C133.092 80.2617 132.479 80.3164 131.807 80.3164C130.541 80.3164 129.389 80.1406 128.35 79.7891C127.319 79.4297 126.42 78.8711 125.654 78.1133C124.904 77.3711 124.319 76.4297 123.897 75.2891C123.475 74.1406 123.264 72.8086 123.264 71.293C123.264 69.8555 123.467 68.5703 123.873 67.4375C124.279 66.3047 124.865 65.3477 125.631 64.5664C126.373 63.8086 127.268 63.2305 128.315 62.832C129.369 62.4336 130.537 62.2344 131.819 62.2344C132.756 62.2344 133.69 62.3477 134.619 62.5742C135.557 62.8008 136.596 63.1992 137.737 63.7695V66.5234H137.561C136.6 65.7188 135.647 65.1328 134.701 64.7656C133.756 64.3984 132.744 64.2148 131.666 64.2148C130.783 64.2148 129.987 64.3594 129.276 64.6484C128.572 64.9297 127.944 65.3711 127.389 65.9727C126.85 66.5586 126.428 67.3008 126.123 68.1992C125.826 69.0898 125.678 70.1211 125.678 71.293C125.678 72.5195 125.842 73.5742 126.17 74.457C126.506 75.3398 126.936 76.0586 127.459 76.6133C128.006 77.1914 128.643 77.6211 129.369 77.9023C130.104 78.1758 130.877 78.3125 131.69 78.3125C132.807 78.3125 133.854 78.1211 134.83 77.7383C135.807 77.3555 136.721 76.7812 137.572 76.0156H137.737V78.7344ZM156.405 80H154.085V71.457H145.378V80H143.058V62.5508H145.378V69.3945H154.085V62.5508H156.405V80ZM174.641 80H163.145V62.5508H174.641V64.6133H165.465V69.3945H174.641V71.457H165.465V77.9375H174.641V80ZM191.786 67.8242C191.786 68.5977 191.649 69.3164 191.376 69.9805C191.11 70.6367 190.735 71.207 190.251 71.6914C189.649 72.293 188.939 72.7461 188.118 73.0508C187.298 73.3477 186.263 73.4961 185.013 73.4961H182.692V80H180.372V62.5508H185.107C186.153 62.5508 187.04 62.6406 187.767 62.8203C188.493 62.9922 189.138 63.2656 189.7 63.6406C190.364 64.0859 190.876 64.6406 191.235 65.3047C191.603 65.9688 191.786 66.8086 191.786 67.8242ZM189.372 67.8828C189.372 67.2812 189.267 66.7578 189.056 66.3125C188.845 65.8672 188.524 65.5039 188.095 65.2227C187.72 64.9805 187.29 64.8086 186.806 64.707C186.329 64.5977 185.724 64.543 184.989 64.543H182.692V71.5156H184.649C185.587 71.5156 186.349 71.4336 186.935 71.2695C187.521 71.0977 187.997 70.8281 188.364 70.4609C188.732 70.0859 188.989 69.6914 189.138 69.2773C189.294 68.8633 189.372 68.3984 189.372 67.8828ZM209.904 64.5547C210.615 65.3359 211.158 66.293 211.533 67.4258C211.916 68.5586 212.107 69.8438 212.107 71.2812C212.107 72.7188 211.912 74.0078 211.522 75.1484C211.139 76.2812 210.6 77.2266 209.904 77.9844C209.186 78.7734 208.334 79.3672 207.35 79.7656C206.373 80.1641 205.256 80.3633 203.998 80.3633C202.772 80.3633 201.654 80.1602 200.647 79.7539C199.647 79.3477 198.795 78.7578 198.092 77.9844C197.389 77.2109 196.846 76.2617 196.463 75.1367C196.088 74.0117 195.9 72.7266 195.9 71.2812C195.9 69.8594 196.088 68.5859 196.463 67.4609C196.838 66.3281 197.385 65.3594 198.104 64.5547C198.791 63.7891 199.643 63.2031 200.658 62.7969C201.682 62.3906 202.795 62.1875 203.998 62.1875C205.248 62.1875 206.369 62.3945 207.361 62.8086C208.361 63.2148 209.209 63.7969 209.904 64.5547ZM209.693 71.2812C209.693 69.0156 209.186 67.2695 208.17 66.043C207.154 64.8086 205.768 64.1914 204.01 64.1914C202.236 64.1914 200.842 64.8086 199.826 66.043C198.818 67.2695 198.314 69.0156 198.314 71.2812C198.314 73.5703 198.83 75.3242 199.861 76.543C200.893 77.7539 202.275 78.3594 204.01 78.3594C205.744 78.3594 207.123 77.7539 208.147 76.543C209.178 75.3242 209.693 73.5703 209.693 71.2812Z" fill="#45371C"/>
<path d="M69.0618 82.8125H213.443V84.2188H69.0618V82.8125Z" fill="#45371C"/>
</g>
</g>
<defs>
<filter id="filter0_b_104_21" x="-4" y="-4" width="253" height="110" filterUnits="userSpaceOnUse" color-interpolation-filters="sRGB">
<feFlood flood-opacity="0" result="BackgroundImageFix"/>
<feGaussianBlur in="BackgroundImageFix" stdDeviation="2"/>
<feComposite in2="SourceAlpha" operator="in" result="effect1_backgroundBlur_104_21"/>
<feBlend mode="normal" in="SourceGraphic" in2="effect1_backgroundBlur_104_21" result="shape"/>
</filter>
<filter id="filter1_i_104_21" x="71.4056" y="33.5508" width="140.961" height="50.8125" filterUnits="userSpaceOnUse" color-interpolation-filters="sRGB">
<feFlood flood-opacity="0" result="BackgroundImageFix"/>
<feBlend mode="normal" in="SourceGraphic" in2="BackgroundImageFix" result="shape"/>
<feColorMatrix in="SourceAlpha" type="matrix" values="0 0 0 0 0 0 0 0 0 0 0 0 0 0 0 0 0 0 127 0" result="hardAlpha"/>
<feOffset dy="4"/>
<feGaussianBlur stdDeviation="2"/>
<feComposite in2="hardAlpha" operator="arithmetic" k2="-1" k3="1"/>
<feColorMatrix type="matrix" values="0 0 0 0 0 0 0 0 0 0 0 0 0 0 0 0 0 0 0.25 0"/>
<feBlend mode="normal" in2="shape" result="effect1_innerShadow_104_21"/>
</filter>
</defs>
</svg>
