<svg width="200" height="200" viewBox="0 0 200 200" fill="none" xmlns="http://www.w3.org/2000/svg">
<path d="M154.492 86.2269C157.161 91.7824 159.147 97.5694 160.449 103.588C161.751 109.606 162.435 115.818 162.5 122.222V134.144L100 171.296L37.5 134.144C37.5 129.514 37.5326 125.193 37.5977 121.181C37.6628 117.168 37.9557 113.272 38.4766 109.491C38.9974 105.71 39.7786 101.929 40.8203 98.1481C41.862 94.3673 43.4245 90.3935 45.5078 86.2269L25 74.0741V142.014C26.888 142.785 28.5807 143.866 30.0781 145.255C31.5755 146.644 32.9102 148.264 34.082 150.116C35.2539 151.968 36.1003 153.974 36.6211 156.134C37.1419 158.295 37.4349 160.571 37.5 162.963V200H0V162.963C0 160.648 0.292969 158.41 0.878906 156.25C1.46484 154.09 2.3112 152.045 3.41797 150.116C4.52474 148.187 5.82682 146.566 7.32422 145.255C8.82161 143.943 10.5469 142.863 12.5 142.014V66.6667L0 59.2593L100 0L200 59.2593L154.492 86.2269ZM25 162.963C25 160.957 24.3815 159.221 23.1445 157.755C21.9076 156.289 20.4427 155.556 18.75 155.556C17.0573 155.556 15.5924 156.289 14.3555 157.755C13.1185 159.221 12.5 160.957 12.5 162.963V185.185H25V162.963ZM27.9297 59.2593L100 101.968L172.07 59.2593L100 16.5509L27.9297 59.2593ZM150 125C150 119.059 149.512 113.542 148.535 108.449C147.559 103.356 145.833 98.1481 143.359 92.8241L100 118.519L56.6406 92.8241C54.4922 97.2994 52.8646 102.006 51.7578 106.944C50.651 111.883 50.0651 116.975 50 122.222V125L100 154.63L150 125Z" fill="#E3E2DD"/>
</svg>
