<svg width="512" height="512" viewBox="0 0 512 512" fill="none" xmlns="http://www.w3.org/2000/svg">
<path d="M193.283 126.96C100.145 126.96 24.642 202.554 24.642 295.805C24.642 317.63 28.779 338.487 36.309 357.635L7.73005 451.016C7.49016 451.602 7.30862 452.21 7.18805 452.831L7.15105 453H7.17205C6.65005 456 7.38805 458.716 9.47305 460.936C11.556 463.156 14.481 464.058 17.287 463.71C17.285 463.716 17.287 463.712 17.287 463.712L17.405 463.684C18.027 463.599 18.6388 463.452 19.231 463.244L108.591 441.837C133.48 456.338 162.41 464.649 193.282 464.649C286.42 464.649 361.923 389.054 361.923 295.804C361.923 202.554 286.421 126.96 193.283 126.96Z" fill="#E3E2DD"/>
<path d="M504.312 361.012L504.292 360.904C504.216 360.338 504.083 359.781 503.894 359.242L484.412 277.913C497.61 255.261 505.175 228.931 505.175 200.834C505.175 116.067 436.375 47.35 351.506 47.35C266.637 47.35 197.837 116.067 197.837 200.834C197.837 285.601 266.637 354.318 351.506 354.318C371.369 354.318 390.352 350.553 407.778 343.7L492.767 369.71C493.289 369.931 493.584 370.092 494.133 370.203L494 370.238V370.218C497 370.693 499.488 370.021 501.509 368.124C503.53 366.228 504.493 363.566 504.177 361.012C504.183 361.014 504.312 361.012 504.312 361.012V361.012Z" fill="#D3D2CC"/>
</svg>
