<svg width="200" height="200" viewBox="0 0 200 200" fill="none" xmlns="http://www.w3.org/2000/svg">
<path d="M169.833 71.4167L159.583 86.8333C164.527 96.6923 166.947 107.624 166.627 118.648C166.307 129.672 163.257 140.444 157.75 150H42.2501C35.0931 137.584 32.1275 123.193 33.7929 108.959C35.4583 94.7251 41.666 81.4069 51.4957 70.9786C61.3255 60.5503 74.2539 53.567 88.3645 51.0641C102.475 48.5613 117.017 50.672 129.833 57.0833L145.25 46.8333C129.554 36.7685 110.936 32.2584 92.3741 34.0245C73.8122 35.7906 56.3788 43.7308 42.8625 56.5751C29.3462 69.4194 20.5281 86.4256 17.8185 104.873C15.109 123.321 18.6646 142.145 27.9167 158.333C29.371 160.852 31.4591 162.947 33.9736 164.409C36.4882 165.871 39.3415 166.649 42.2501 166.667H157.667C160.604 166.678 163.491 165.914 166.038 164.45C168.584 162.987 170.698 160.877 172.167 158.333C179.845 145.033 183.698 129.869 183.301 114.516C182.904 99.1637 178.272 84.2193 169.917 71.3333L169.833 71.4167Z" fill="#E3E2DD"/>
<path d="M88.2501 128.417C89.7979 129.966 91.6361 131.196 93.6594 132.034C95.6827 132.873 97.8515 133.305 100.042 133.305C102.232 133.305 104.401 132.873 106.424 132.034C108.447 131.196 110.286 129.966 111.833 128.417L159 57.6667L88.2501 104.833C86.7004 106.381 85.4711 108.219 84.6324 110.243C83.7937 112.266 83.3619 114.435 83.3619 116.625C83.3619 118.815 83.7937 120.984 84.6324 123.007C85.4711 125.031 86.7004 126.869 88.2501 128.417Z" fill="#E3E2DD"/>
</svg>
