<svg width="150" height="150" viewBox="0 0 150 150" fill="none" xmlns="http://www.w3.org/2000/svg">
<path d="M18.75 25V100C18.75 106.894 24.3562 112.5 31.25 112.5H53.6625L75 133.837L96.3375 112.5H118.75C125.644 112.5 131.25 106.894 131.25 100V25C131.25 18.1062 125.644 12.5 118.75 12.5H31.25C24.3562 12.5 18.75 18.1062 18.75 25ZM31.25 25H118.75V100H91.1625L75 116.163L58.8375 100H31.25V25Z" fill="#E3E2DD"/>
<path d="M107.544 45.0437L98.7063 36.2062L68.75 66.1625L54.4188 51.8312L45.5813 60.6687L68.75 83.8375L107.544 45.0437Z" fill="#E3E2DD"/>
</svg>
