<svg width="200" height="200" viewBox="0 0 200 200" fill="none" xmlns="http://www.w3.org/2000/svg">
<path d="M150 166.667L181.867 134.8C182.805 133.863 183.332 132.592 183.333 131.267V87.5C183.333 84.1848 182.016 81.0054 179.672 78.6612C177.328 76.317 174.149 75 170.833 75V75C167.518 75 164.339 76.317 161.995 78.6612C159.65 81.0054 158.333 84.1848 158.333 87.5V125" stroke="#E3E2DD" stroke-width="8" stroke-linecap="round" stroke-linejoin="round"/>
<path d="M150 133.333L157.15 126.183C157.526 125.808 157.824 125.363 158.027 124.872C158.23 124.382 158.334 123.856 158.333 123.325C158.332 122.576 158.123 121.841 157.728 121.204C157.334 120.567 156.77 120.052 156.1 119.717L152.408 117.875C149.281 116.311 145.741 115.771 142.289 116.33C138.837 116.889 135.649 118.52 133.175 120.992L125.717 128.45C122.591 131.575 120.834 135.813 120.833 140.233V166.667M50 166.667L18.1334 134.8C17.1954 133.863 16.6679 132.592 16.6667 131.267V87.5C16.6667 84.1848 17.9836 81.0054 20.3279 78.6612C22.6721 76.317 25.8515 75 29.1667 75V75C32.4819 75 35.6613 76.317 38.0055 78.6612C40.3497 81.0054 41.6667 84.1848 41.6667 87.5V125" stroke="#E3E2DD" stroke-width="8" stroke-linecap="round" stroke-linejoin="round"/>
<path d="M50 133.333L42.85 126.183C42.4747 125.808 42.1771 125.362 41.9741 124.872C41.771 124.381 41.6666 123.856 41.6667 123.325V123.325C41.6667 121.8 42.5334 120.408 43.9 119.717L47.5917 117.875C50.7193 116.311 54.2595 115.771 57.7112 116.33C61.163 116.889 64.3513 118.52 66.825 120.992L74.2833 128.45C77.4092 131.575 79.1657 135.813 79.1667 140.233V166.667M113.892 100H86.1084V80.5583H66.6667V52.775H86.1084V33.3333H113.892V52.775H133.333V80.5583H113.892V100V100Z" stroke="#E3E2DD" stroke-width="8" stroke-linecap="round" stroke-linejoin="round"/>
</svg>
