<svg width="200" height="200" viewBox="0 0 200 200" fill="none" xmlns="http://www.w3.org/2000/svg">
<path d="M162.5 50H187.5V200H25V50H50V37.5H62.5V50H150V37.5H162.5V50ZM175 62.5H162.5V75H175V62.5ZM150 62.5H62.5V75H150V62.5ZM50 62.5H37.5V75H50V62.5ZM37.5 187.5H175V87.5H37.5V187.5ZM25 37.5V25H12.5V162.5H0V12.5H25V0H37.5V12.5H125V0H137.5V12.5H162.5V25H137.5V37.5H125V25H37.5V37.5H25ZM62.5 137.5V125H75V137.5H62.5ZM87.5 137.5V125H100V137.5H87.5ZM112.5 137.5V125H125V137.5H112.5ZM137.5 137.5V125H150V137.5H137.5ZM62.5 162.5V150H75V162.5H62.5ZM87.5 162.5V150H100V162.5H87.5ZM112.5 162.5V150H125V162.5H112.5ZM87.5 112.5V100H100V112.5H87.5ZM112.5 112.5V100H125V112.5H112.5ZM137.5 112.5V100H150V112.5H137.5Z" fill="#E3E2DD"/>
</svg>
